<svg xmlns="http://www.w3.org/2000/svg" xmlns:xlink="http://www.w3.org/1999/xlink" width="500" zoomAndPan="magnify" viewBox="0 0 375 374.999991" height="500" preserveAspectRatio="xMidYMid meet" version="1.0"><defs><g/><clipPath id="18a1fd6c56"><path d="M 32.464844 144.359375 L 77 144.359375 L 77 230.609375 L 32.464844 230.609375 Z M 32.464844 144.359375 " clip-rule="nonzero"/></clipPath><clipPath id="280f87e587"><path d="M 84 144.359375 L 128.464844 144.359375 L 128.464844 230.609375 L 84 230.609375 Z M 84 144.359375 " clip-rule="nonzero"/></clipPath></defs><g clip-path="url(#18a1fd6c56)"><path fill="#5bcfc5" d="M 76.527344 162.425781 L 76.4375 145.972656 C 76.429688 144.894531 75.117188 144.359375 74.355469 145.128906 L 32.949219 186.855469 C 32.480469 187.332031 32.484375 188.101562 32.960938 188.570312 L 41.257812 196.753906 C 41.734375 197.222656 42.503906 197.21875 42.976562 196.742188 L 76.175781 163.285156 C 76.402344 163.054688 76.527344 162.746094 76.527344 162.425781 Z M 47.820312 201.519531 L 74.519531 174.613281 C 75.28125 173.847656 76.589844 174.378906 76.597656 175.457031 L 76.6875 191.914062 C 76.6875 192.234375 76.5625 192.542969 76.335938 192.769531 L 67.761719 201.414062 C 67.289062 201.886719 67.292969 202.65625 67.769531 203.125 L 76.4375 211.675781 C 76.667969 211.898438 76.796875 212.207031 76.800781 212.527344 L 76.890625 228.980469 C 76.894531 230.0625 75.589844 230.609375 74.820312 229.847656 L 47.828125 203.234375 C 47.351562 202.761719 47.347656 201.996094 47.820312 201.519531 " fill-opacity="1" fill-rule="nonzero"/></g><g clip-path="url(#280f87e587)"><path fill="#38bfb3" d="M 84.746094 163.285156 L 117.945312 196.742188 C 118.417969 197.21875 119.1875 197.222656 119.664062 196.753906 L 127.960938 188.570312 C 128.4375 188.101562 128.441406 187.332031 127.96875 186.855469 L 86.5625 145.128906 C 85.800781 144.359375 84.488281 144.894531 84.484375 145.972656 L 84.394531 162.425781 C 84.394531 162.746094 84.519531 163.054688 84.746094 163.285156 Z M 113.089844 203.234375 L 86.101562 229.847656 C 85.332031 230.609375 84.023438 230.0625 84.03125 228.980469 L 84.121094 212.527344 C 84.121094 212.207031 84.25 211.898438 84.480469 211.675781 L 93.148438 203.125 C 93.625 202.65625 93.632812 201.886719 93.160156 201.414062 L 84.585938 192.769531 C 84.359375 192.542969 84.230469 192.234375 84.234375 191.914062 L 84.324219 175.457031 C 84.328125 174.378906 85.640625 173.847656 86.402344 174.613281 L 113.101562 201.519531 C 113.570312 201.996094 113.566406 202.761719 113.089844 203.234375 " fill-opacity="1" fill-rule="nonzero"/></g><g fill="#5bcfc5" fill-opacity="1"><g transform="translate(143.429623, 182.002488)"><g><path d="M 6.488281 -2.121094 C 5.007812 -2.121094 3.726562 -2.863281 3.644531 -4.484375 L 0.601562 -4.484375 C 0.621094 -1.160156 3.363281 0.320312 6.367188 0.320312 C 9.152344 0.320312 12.015625 -0.859375 12.015625 -4.066406 C 12.015625 -9.25 4.144531 -7.507812 4.144531 -9.933594 C 4.144531 -10.953125 5.328125 -11.355469 6.167969 -11.355469 C 7.667969 -11.355469 8.492188 -10.894531 8.652344 -9.472656 L 11.554688 -9.472656 C 11.453125 -12.574219 8.929688 -13.816406 6.128906 -13.816406 C 3.644531 -13.816406 1.042969 -12.496094 1.042969 -9.691406 C 1.042969 -4.664062 8.910156 -6.367188 8.910156 -3.726562 C 8.910156 -2.503906 7.429688 -2.121094 6.488281 -2.121094 Z M 6.488281 -2.121094 "/></g></g></g><g fill="#5bcfc5" fill-opacity="1"><g transform="translate(157.541284, 182.002488)"><g><path d="M 18.183594 0 L 15.539062 -13.617188 L 11.976562 -13.617188 L 9.152344 -4.066406 L 6.308594 -13.617188 L 2.742188 -13.617188 L 0.101562 0 L 3.402344 0 L 5.007812 -9.390625 L 7.667969 0 L 10.613281 0 L 13.277344 -9.390625 L 14.878906 0 Z M 18.183594 0 "/></g></g></g><g fill="#5bcfc5" fill-opacity="1"><g transform="translate(177.317347, 182.002488)"><g><path d="M 8.609375 -5.207031 L 5.167969 -5.207031 L 6.886719 -10.050781 Z M 13.695312 0 L 8.171875 -13.617188 L 5.628906 -13.617188 L 0.101562 0 L 3.324219 0 L 4.304688 -2.742188 L 9.492188 -2.742188 L 10.472656 0 Z M 13.695312 0 "/></g></g></g><g fill="#5bcfc5" fill-opacity="1"><g transform="translate(192.609923, 182.002488)"><g><path d="M 4.207031 -4.867188 L 4.226562 -4.867188 L 7.46875 0 L 11.273438 0 L 7.371094 -5.007812 C 9.089844 -5.425781 10.472656 -6.949219 10.472656 -9.25 C 10.472656 -11.835938 8.511719 -13.617188 6.308594 -13.617188 L 1.203125 -13.617188 L 1.203125 0 L 4.207031 0 Z M 5.808594 -11.253906 C 6.6875 -11.253906 7.609375 -10.492188 7.609375 -9.25 C 7.609375 -7.949219 6.6875 -7.230469 5.808594 -7.230469 L 4.207031 -7.230469 L 4.207031 -11.253906 Z M 5.808594 -11.253906 "/></g></g></g><g fill="#5bcfc5" fill-opacity="1"><g transform="translate(205.140356, 182.002488)"><g><path d="M 6.988281 -10.894531 L 10.875 -10.894531 L 10.875 -13.617188 L 0.101562 -13.617188 L 0.101562 -10.894531 L 3.984375 -10.894531 L 3.984375 0 L 6.988281 0 Z M 6.988281 -10.894531 "/></g></g></g><g fill="#5bcfc5" fill-opacity="1"><g transform="translate(217.610741, 182.002488)"><g/></g></g><g fill="#5bcfc5" fill-opacity="1"><g transform="translate(224.116501, 182.002488)"><g><path d="M 11.035156 -4.625 C 10.472656 -3.425781 9.113281 -2.601562 7.710938 -2.601562 C 5.507812 -2.601562 3.746094 -4.484375 3.746094 -6.808594 C 3.746094 -9.113281 5.507812 -11.015625 7.710938 -11.015625 C 9.089844 -11.015625 10.453125 -10.253906 11.015625 -9.03125 L 14.359375 -9.03125 C 13.4375 -11.816406 10.8125 -13.816406 7.710938 -13.816406 C 3.84375 -13.816406 0.699219 -10.671875 0.699219 -6.808594 C 0.699219 -2.945312 3.84375 0.199219 7.710938 0.199219 C 10.8125 0.199219 13.457031 -1.824219 14.378906 -4.625 Z M 11.035156 -4.625 "/></g></g></g><g fill="#5bcfc5" fill-opacity="1"><g transform="translate(240.489911, 182.002488)"><g><path d="M 8.609375 -5.207031 L 5.167969 -5.207031 L 6.886719 -10.050781 Z M 13.695312 0 L 8.171875 -13.617188 L 5.628906 -13.617188 L 0.101562 0 L 3.324219 0 L 4.304688 -2.742188 L 9.492188 -2.742188 L 10.472656 0 Z M 13.695312 0 "/></g></g></g><g fill="#5bcfc5" fill-opacity="1"><g transform="translate(255.78249, 182.002488)"><g><path d="M 6.488281 -2.121094 C 5.007812 -2.121094 3.726562 -2.863281 3.644531 -4.484375 L 0.601562 -4.484375 C 0.621094 -1.160156 3.363281 0.320312 6.367188 0.320312 C 9.152344 0.320312 12.015625 -0.859375 12.015625 -4.066406 C 12.015625 -9.25 4.144531 -7.507812 4.144531 -9.933594 C 4.144531 -10.953125 5.328125 -11.355469 6.167969 -11.355469 C 7.667969 -11.355469 8.492188 -10.894531 8.652344 -9.472656 L 11.554688 -9.472656 C 11.453125 -12.574219 8.929688 -13.816406 6.128906 -13.816406 C 3.644531 -13.816406 1.042969 -12.496094 1.042969 -9.691406 C 1.042969 -4.664062 8.910156 -6.367188 8.910156 -3.726562 C 8.910156 -2.503906 7.429688 -2.121094 6.488281 -2.121094 Z M 6.488281 -2.121094 "/></g></g></g><g fill="#5bcfc5" fill-opacity="1"><g transform="translate(269.894153, 182.002488)"><g><path d="M 8.691406 -13.617188 L 8.691406 -8.191406 L 4.207031 -8.191406 L 4.207031 -13.617188 L 1.203125 -13.617188 L 1.203125 0 L 4.207031 0 L 4.207031 -5.46875 L 8.691406 -5.46875 L 8.691406 0 L 11.894531 0 L 11.894531 -13.617188 Z M 8.691406 -13.617188 "/></g></g></g><g fill="#5bcfc5" fill-opacity="1"><g transform="translate(284.486193, 182.002488)"><g><path d="M 4.207031 0 L 4.207031 -13.617188 L 1.203125 -13.617188 L 1.203125 0 Z M 4.207031 0 "/></g></g></g><g fill="#5bcfc5" fill-opacity="1"><g transform="translate(291.392267, 182.002488)"><g><path d="M 9.089844 -2.722656 L 4.207031 -2.722656 L 4.207031 -5.46875 L 8.890625 -5.46875 L 8.890625 -8.191406 L 4.207031 -8.191406 L 4.207031 -10.894531 L 9.089844 -10.894531 L 9.089844 -13.617188 L 1.203125 -13.617188 L 1.203125 0 L 9.089844 0 Z M 9.089844 -2.722656 "/></g></g></g><g fill="#5bcfc5" fill-opacity="1"><g transform="translate(303.18213, 182.002488)"><g><path d="M 4.207031 -4.867188 L 4.226562 -4.867188 L 7.46875 0 L 11.273438 0 L 7.371094 -5.007812 C 9.089844 -5.425781 10.472656 -6.949219 10.472656 -9.25 C 10.472656 -11.835938 8.511719 -13.617188 6.308594 -13.617188 L 1.203125 -13.617188 L 1.203125 0 L 4.207031 0 Z M 5.808594 -11.253906 C 6.6875 -11.253906 7.609375 -10.492188 7.609375 -9.25 C 7.609375 -7.949219 6.6875 -7.230469 5.808594 -7.230469 L 4.207031 -7.230469 L 4.207031 -11.253906 Z M 5.808594 -11.253906 "/></g></g></g><g fill="#38bfb3" fill-opacity="1"><g transform="translate(211.391358, 202.265377)"><g><path d="M 6.125 -0.984375 L 6.125 0 L 0.421875 0 L 0.421875 -0.765625 L 3.640625 -3.890625 C 4.035156 -4.265625 4.300781 -4.585938 4.4375 -4.859375 C 4.570312 -5.140625 4.640625 -5.421875 4.640625 -5.703125 C 4.640625 -6.117188 4.492188 -6.441406 4.203125 -6.671875 C 3.910156 -6.898438 3.492188 -7.015625 2.953125 -7.015625 C 2.078125 -7.015625 1.398438 -6.726562 0.921875 -6.15625 L 0.15625 -6.8125 C 0.46875 -7.195312 0.875 -7.492188 1.375 -7.703125 C 1.875 -7.910156 2.4375 -8.015625 3.0625 -8.015625 C 3.894531 -8.015625 4.554688 -7.816406 5.046875 -7.421875 C 5.535156 -7.023438 5.78125 -6.488281 5.78125 -5.8125 C 5.78125 -5.382812 5.6875 -4.984375 5.5 -4.609375 C 5.320312 -4.234375 4.976562 -3.800781 4.46875 -3.3125 L 2.046875 -0.984375 Z M 6.125 -0.984375 "/></g></g></g><g fill="#38bfb3" fill-opacity="1"><g transform="translate(220.495046, 202.265377)"><g><path d="M 3.78125 0.09375 C 3.15625 0.09375 2.597656 -0.0664062 2.109375 -0.390625 C 1.617188 -0.710938 1.234375 -1.175781 0.953125 -1.78125 C 0.679688 -2.394531 0.546875 -3.125 0.546875 -3.96875 C 0.546875 -4.800781 0.679688 -5.523438 0.953125 -6.140625 C 1.234375 -6.753906 1.617188 -7.21875 2.109375 -7.53125 C 2.597656 -7.851562 3.15625 -8.015625 3.78125 -8.015625 C 4.40625 -8.015625 4.957031 -7.851562 5.4375 -7.53125 C 5.925781 -7.21875 6.3125 -6.753906 6.59375 -6.140625 C 6.875 -5.523438 7.015625 -4.800781 7.015625 -3.96875 C 7.015625 -3.125 6.875 -2.394531 6.59375 -1.78125 C 6.3125 -1.175781 5.925781 -0.710938 5.4375 -0.390625 C 4.957031 -0.0664062 4.40625 0.09375 3.78125 0.09375 Z M 3.78125 -0.921875 C 4.414062 -0.921875 4.921875 -1.179688 5.296875 -1.703125 C 5.679688 -2.222656 5.875 -2.976562 5.875 -3.96875 C 5.875 -4.957031 5.679688 -5.710938 5.296875 -6.234375 C 4.921875 -6.753906 4.414062 -7.015625 3.78125 -7.015625 C 3.144531 -7.015625 2.632812 -6.753906 2.25 -6.234375 C 1.863281 -5.710938 1.671875 -4.957031 1.671875 -3.96875 C 1.671875 -2.976562 1.863281 -2.222656 2.25 -1.703125 C 2.632812 -1.179688 3.144531 -0.921875 3.78125 -0.921875 Z M 3.78125 -0.921875 "/></g></g></g><g fill="#38bfb3" fill-opacity="1"><g transform="translate(230.651523, 202.265377)"><g><path d="M 6.125 -0.984375 L 6.125 0 L 0.421875 0 L 0.421875 -0.765625 L 3.640625 -3.890625 C 4.035156 -4.265625 4.300781 -4.585938 4.4375 -4.859375 C 4.570312 -5.140625 4.640625 -5.421875 4.640625 -5.703125 C 4.640625 -6.117188 4.492188 -6.441406 4.203125 -6.671875 C 3.910156 -6.898438 3.492188 -7.015625 2.953125 -7.015625 C 2.078125 -7.015625 1.398438 -6.726562 0.921875 -6.15625 L 0.15625 -6.8125 C 0.46875 -7.195312 0.875 -7.492188 1.375 -7.703125 C 1.875 -7.910156 2.4375 -8.015625 3.0625 -8.015625 C 3.894531 -8.015625 4.554688 -7.816406 5.046875 -7.421875 C 5.535156 -7.023438 5.78125 -6.488281 5.78125 -5.8125 C 5.78125 -5.382812 5.6875 -4.984375 5.5 -4.609375 C 5.320312 -4.234375 4.976562 -3.800781 4.46875 -3.3125 L 2.046875 -0.984375 Z M 6.125 -0.984375 "/></g></g></g><g fill="#38bfb3" fill-opacity="1"><g transform="translate(239.755211, 202.265377)"><g><path d="M 3.578125 -4.59375 C 4.359375 -4.519531 4.953125 -4.28125 5.359375 -3.875 C 5.765625 -3.476562 5.96875 -2.960938 5.96875 -2.328125 C 5.96875 -1.878906 5.851562 -1.472656 5.625 -1.109375 C 5.40625 -0.742188 5.066406 -0.453125 4.609375 -0.234375 C 4.160156 -0.015625 3.613281 0.09375 2.96875 0.09375 C 2.40625 0.09375 1.863281 0.0078125 1.34375 -0.15625 C 0.820312 -0.332031 0.394531 -0.570312 0.0625 -0.875 L 0.578125 -1.765625 C 0.847656 -1.503906 1.191406 -1.296875 1.609375 -1.140625 C 2.035156 -0.992188 2.488281 -0.921875 2.96875 -0.921875 C 3.5625 -0.921875 4.019531 -1.046875 4.34375 -1.296875 C 4.675781 -1.546875 4.84375 -1.890625 4.84375 -2.328125 C 4.84375 -2.765625 4.675781 -3.101562 4.34375 -3.34375 C 4.019531 -3.582031 3.53125 -3.703125 2.875 -3.703125 L 2.25 -3.703125 L 2.25 -4.5 L 4.234375 -6.9375 L 0.421875 -6.9375 L 0.421875 -7.9375 L 5.65625 -7.9375 L 5.65625 -7.15625 Z M 3.578125 -4.59375 "/></g></g></g></svg>