<svg xmlns="http://www.w3.org/2000/svg" xmlns:xlink="http://www.w3.org/1999/xlink" width="53" zoomAndPan="magnify" viewBox="0 0 375 374.999991" height="53" preserveAspectRatio="xMidYMid meet" version="1.0"><defs><clipPath id="bce018922c"><path d="M 139.632812 144.359375 L 185 144.359375 L 185 230.609375 L 139.632812 230.609375 Z M 139.632812 144.359375 " clip-rule="nonzero"/></clipPath><clipPath id="ea2bd2245c"><path d="M 191 144.359375 L 235.632812 144.359375 L 235.632812 230.609375 L 191 230.609375 Z M 191 144.359375 " clip-rule="nonzero"/></clipPath></defs><g clip-path="url(#bce018922c)"><path fill="#5bcfc5" d="M 183.691406 162.425781 L 183.601562 145.972656 C 183.597656 144.894531 182.285156 144.359375 181.523438 145.128906 L 140.117188 186.855469 C 139.644531 187.332031 139.652344 188.101562 140.128906 188.570312 L 148.425781 196.753906 C 148.902344 197.222656 149.671875 197.21875 150.144531 196.742188 L 183.34375 163.285156 C 183.570312 163.054688 183.695312 162.746094 183.691406 162.425781 Z M 154.988281 201.519531 L 181.683594 174.613281 C 182.445312 173.847656 183.757812 174.378906 183.765625 175.457031 L 183.855469 191.914062 C 183.855469 192.234375 183.730469 192.542969 183.503906 192.769531 L 174.929688 201.414062 C 174.457031 201.886719 174.460938 202.65625 174.9375 203.125 L 183.605469 211.675781 C 183.835938 211.898438 183.964844 212.207031 183.964844 212.527344 L 184.054688 228.980469 C 184.0625 230.0625 182.757812 230.609375 181.988281 229.847656 L 154.996094 203.234375 C 154.519531 202.761719 154.515625 201.996094 154.988281 201.519531 " fill-opacity="1" fill-rule="nonzero"/></g><g clip-path="url(#ea2bd2245c)"><path fill="#38bfb3" d="M 191.914062 163.285156 L 225.109375 196.742188 C 225.582031 197.21875 226.351562 197.222656 226.828125 196.753906 L 235.128906 188.570312 C 235.605469 188.101562 235.609375 187.332031 235.136719 186.855469 L 193.730469 145.128906 C 192.96875 144.359375 191.65625 144.894531 191.652344 145.972656 L 191.5625 162.425781 C 191.558594 162.746094 191.6875 163.054688 191.914062 163.285156 Z M 220.257812 203.234375 L 193.269531 229.847656 C 192.5 230.609375 191.191406 230.0625 191.199219 228.980469 L 191.289062 212.527344 C 191.289062 212.207031 191.417969 211.898438 191.648438 211.675781 L 200.316406 203.125 C 200.792969 202.65625 200.796875 201.886719 200.328125 201.414062 L 191.753906 192.769531 C 191.523438 192.542969 191.398438 192.234375 191.402344 191.914062 L 191.488281 175.457031 C 191.496094 174.378906 192.808594 173.847656 193.570312 174.613281 L 220.265625 201.519531 C 220.738281 201.996094 220.734375 202.761719 220.257812 203.234375 " fill-opacity="1" fill-rule="nonzero"/></g></svg>